<mxfile host="app.diagrams.net" modified="2023-08-30T13:08:07.582Z" agent="Mozilla/5.0 (Windows NT 10.0; Win64; x64; rv:109.0) Gecko/20100101 Firefox/116.0" version="21.6.8" etag="E3IuG6RAqZIuBpqawAFt" type="github">
  <diagram name="Page-1" id="ePdk9TKYztPULW251HT_">
    <mxGraphModel>
      <root>
        <mxCell id="0" />
        <mxCell id="1" parent="0" />
      </root>
    </mxGraphModel>
  </diagram>
</mxfile>
